# xmcd
#
# Track frame offsets: 
#        150
#        17695
#        39667
#        57947
#        73192
#        87605
#        101632
#        123527
#
# Disc length: 1976 seconds
#
# Revision: 2
# Processed by: cddbd v1.5.1PL0 Copyright (c) Steve Scherf et al.
# Submitted via: ExactAudioCopy v0.95b2
#
DISCID=7007b608
DTITLE=Climax Blues Band - Gold Plated
DYEAR=1976
DGENRE=Rock
TTITLE0=Together and Free
TTITLE1=Mighty Fire
TTITLE2=Chasing Change
TTITLE3=Berlin Blues
TTITLE4=Couldn't Get It Right
TTITLE5=Rollin' Home
TTITLE6=Sav'ry Gravy
TTITLE7=Extra
EXTD=
EXTT0=
EXTT1=
EXTT2=
EXTT3=
EXTT4=
EXTT5=
EXTT6=
EXTT7=
PLAYORDER=
